<svg xmlns="http://www.w3.org/2000/svg" viewBox="0 0 638 638" role="img" aria-label="ReuniAI">
  <path d="M 190.500 21.637 C 184.930 22.135, 175.688 23.936, 168 26.019 C 145.550 32.102, 124.744 44.225, 107.988 60.986 C 84.611 84.367, 70.542 113.848, 67.877 145.032 C 67.275 152.079, 67.044 198.362, 67.282 264.032 C 67.628 359.383, 67.858 372.289, 69.318 378.500 C 71.368 387.219, 74.157 396.196, 75.205 397.450 C 75.642 397.973, 76 399.029, 76 399.799 C 76 401.643, 83.925 417.281, 88.424 424.314 C 98.547 440.139, 114.628 455.721, 131.669 466.219 C 143.140 473.285, 151.512 477.156, 162 480.243 C 179.326 485.343, 179.293 485.341, 241.500 485.936 C 283.432 486.337, 301.257 486.840, 303.117 487.675 C 307.072 489.450, 310.808 493.296, 312.491 497.324 C 313.722 500.271, 314 506.447, 314 530.891 L 314 560.846 317.077 563.923 C 320.582 567.429, 324.255 567.892, 328.027 565.304 C 329.387 564.371, 332.975 561.271, 336 558.414 C 352.539 542.794, 372.467 527.306, 389.993 516.452 C 406.235 506.393, 421.175 499.437, 441.569 492.440 C 447.369 490.449, 465.512 486.310, 472 485.497 C 484.007 483.992, 500.264 478.816, 513.500 472.282 C 525.649 466.285, 528.107 464.743, 538.125 456.833 C 554.110 444.211, 566.867 428.588, 576.176 410.235 C 579.348 403.981, 582.371 397.433, 582.894 395.682 C 585.397 387.304, 587.870 377.897, 589.121 372 C 591.103 362.655, 591.168 120.309, 589.191 112 C 585.400 96.072, 584.407 92.849, 580.992 85.410 C 568.150 57.428, 544.939 35.940, 517.967 27.062 C 500.699 21.378, 510.505 21.696, 346 21.479 C 262.675 21.369, 192.700 21.440, 190.500 21.637 M 491.500 70.900 C 490.400 71.385, 488.375 72.992, 487 74.471 L 484.500 77.160 484.232 155.650 L 483.964 234.139 489.059 239.820 C 493.905 245.221, 502.928 258.176, 507.714 266.602 L 509.928 270.500 509.714 173.769 L 509.500 77.038 506.343 73.881 C 503.843 71.381, 502.178 70.651, 498.343 70.371 C 495.679 70.177, 492.600 70.415, 491.500 70.900 M 440.270 113.428 C 438.493 114.231, 436.132 116.375, 435.023 118.193 C 433.090 121.364, 433.007 123.157, 433.004 161.844 L 433 202.187 435.166 202.754 C 436.357 203.065, 441.870 205.597, 447.416 208.379 C 452.962 211.161, 457.837 213.602, 458.250 213.802 C 458.663 214.003, 459 193.225, 459 167.630 C 459 134.593, 458.665 120.359, 457.846 118.561 C 457.211 117.168, 455.640 115.339, 454.353 114.496 C 450.902 112.235, 444.062 111.716, 440.270 113.428 M 389.500 149.412 C 387.850 150.145, 385.375 151.962, 384 153.450 C 381.549 156.103, 381.494 156.518, 381.188 174.578 L 380.876 193 383.188 193.077 C 384.460 193.119, 386.213 193.293, 387.084 193.464 C 387.955 193.634, 392.905 193.938, 398.084 194.137 L 407.500 194.500 407.772 176.430 C 408.034 158.988, 407.964 158.241, 405.736 154.930 C 403.343 151.373, 397.973 148.103, 394.500 148.087 C 393.400 148.082, 391.150 148.678, 389.500 149.412 M 230 221.658 C 217.778 223.743, 201.669 229.469, 190.890 235.562 C 182.467 240.323, 169.161 250.862, 163.532 257.230 C 147.737 275.098, 138.240 296.351, 135.318 320.366 C 133.895 332.056, 133.896 334.294, 135.328 344.866 C 137.832 363.361, 144.842 381.831, 154.618 395.691 C 164.762 410.073, 183.235 425.569, 198.500 432.501 C 201.800 433.999, 207.859 436.326, 211.963 437.672 C 227.868 442.887, 229.379 442.963, 316.500 442.963 C 405.296 442.963, 405.355 442.960, 423.191 436.936 C 441.615 430.713, 454.398 422.567, 467.898 408.445 C 472.809 403.308, 479.237 395.187, 482.258 390.304 C 488.066 380.914, 494.925 364.427, 497.153 354.500 C 498.972 346.399, 498.953 317.476, 497.124 309.500 C 492.146 287.784, 482.973 270.414, 468.753 255.772 C 453.294 239.856, 438.097 230.843, 414.982 223.882 L 407.500 221.629 320 221.430 C 271.875 221.321, 231.375 221.423, 230 221.658 M 240.222 286.459 C 233.998 288.418, 229.561 292.233, 226.603 298.168 L 224 303.393 224 329.518 C 224 361.912, 224.522 364.016, 234.422 371.525 C 237.928 374.184, 239.096 374.497, 245.422 374.474 C 255.321 374.437, 261.627 370.573, 266.101 361.803 C 267.832 358.408, 267.999 355.627, 267.991 330.290 L 267.981 302.500 265.022 297.340 C 261.974 292.025, 258.720 289.172, 253.500 287.237 C 248.244 285.289, 244.615 285.076, 240.222 286.459 M 380.145 287.070 C 375.918 288.763, 371.940 292.137, 369.195 296.357 L 366.500 300.500 366.191 328.451 C 365.847 359.547, 366.181 361.722, 372.267 367.978 C 378.380 374.262, 385.870 376.256, 394.500 373.895 C 399.631 372.491, 407.469 364.575, 408.927 359.323 C 410.413 353.971, 410.345 306.314, 408.845 301.899 C 407.113 296.802, 402.978 291.449, 398.550 288.569 C 395.368 286.500, 393.422 286.012, 388.550 286.063 C 385.222 286.098, 381.440 286.551, 380.145 287.070" fill="#0064F5" fill-rule="evenodd"/>
  <path d="M 491.500 70.900 C 490.400 71.385, 488.375 72.992, 487 74.471 L 484.500 77.160 484.232 155.650 L 483.964 234.139 489.059 239.820 C 493.905 245.221, 502.928 258.176, 507.714 266.602 L 509.928 270.500 509.714 173.769 L 509.500 77.038 506.343 73.881 C 503.843 71.381, 502.178 70.651, 498.343 70.371 C 495.679 70.177, 492.600 70.415, 491.500 70.900 M 440.270 113.428 C 438.493 114.231, 436.132 116.375, 435.023 118.193 C 433.090 121.364, 433.007 123.157, 433.004 161.844 L 433 202.187 435.166 202.754 C 436.357 203.065, 441.870 205.597, 447.416 208.379 C 452.962 211.161, 457.837 213.602, 458.250 213.802 C 458.663 214.003, 459 193.225, 459 167.630 C 459 134.593, 458.665 120.359, 457.846 118.561 C 457.211 117.168, 455.640 115.339, 454.353 114.496 C 450.902 112.235, 444.062 111.716, 440.270 113.428 M 389.500 149.412 C 387.850 150.145, 385.375 151.962, 384 153.450 C 381.549 156.103, 381.494 156.518, 381.188 174.578 L 380.876 193 383.188 193.077 C 384.460 193.119, 386.213 193.293, 387.084 193.464 C 387.955 193.634, 392.905 193.938, 398.084 194.137 L 407.500 194.500 407.772 176.430 C 408.034 158.988, 407.964 158.241, 405.736 154.930 C 403.343 151.373, 397.973 148.103, 394.500 148.087 C 393.400 148.082, 391.150 148.678, 389.500 149.412 M 230 221.658 C 217.778 223.743, 201.669 229.469, 190.890 235.562 C 182.467 240.323, 169.161 250.862, 163.532 257.230 C 147.737 275.098, 138.240 296.351, 135.318 320.366 C 133.895 332.056, 133.896 334.294, 135.328 344.866 C 137.832 363.361, 144.842 381.831, 154.618 395.691 C 164.762 410.073, 183.235 425.569, 198.500 432.501 C 201.800 433.999, 207.859 436.326, 211.963 437.672 C 227.868 442.887, 229.379 442.963, 316.500 442.963 C 405.296 442.963, 405.355 442.960, 423.191 436.936 C 441.615 430.713, 454.398 422.567, 467.898 408.445 C 472.809 403.308, 479.237 395.187, 482.258 390.304 C 488.066 380.914, 494.925 364.427, 497.153 354.500 C 498.972 346.399, 498.953 317.476, 497.124 309.500 C 492.146 287.784, 482.973 270.414, 468.753 255.772 C 453.294 239.856, 438.097 230.843, 414.982 223.882 L 407.500 221.629 320 221.430 C 271.875 221.321, 231.375 221.423, 230 221.658" fill="#FFFFFF"/>
  <path d="M 240.222 286.459 C 233.998 288.418, 229.561 292.233, 226.603 298.168 L 224 303.393 224 329.518 C 224 361.912, 224.522 364.016, 234.422 371.525 C 237.928 374.184, 239.096 374.497, 245.422 374.474 C 255.321 374.437, 261.627 370.573, 266.101 361.803 C 267.832 358.408, 267.999 355.627, 267.991 330.290 L 267.981 302.500 265.022 297.340 C 261.974 292.025, 258.720 289.172, 253.500 287.237 C 248.244 285.289, 244.615 285.076, 240.222 286.459 M 380.145 287.070 C 375.918 288.763, 371.940 292.137, 369.195 296.357 L 366.500 300.500 366.191 328.451 C 365.847 359.547, 366.181 361.722, 372.267 367.978 C 378.380 374.262, 385.870 376.256, 394.500 373.895 C 399.631 372.491, 407.469 364.575, 408.927 359.323 C 410.413 353.971, 410.345 306.314, 408.845 301.899 C 407.113 296.802, 402.978 291.449, 398.550 288.569 C 395.368 286.500, 393.422 286.012, 388.550 286.063 C 385.222 286.098, 381.440 286.551, 380.145 287.070" fill="#0064F5"/>
</svg>
